<?xml version="1.0" encoding="utf-8"?>
<!-- Generator: Adobe Illustrator 16.0.0, SVG Export Plug-In . SVG Version: 6.00 Build 0)  -->
<!DOCTYPE svg PUBLIC "-//W3C//DTD SVG 1.1//EN" "http://www.w3.org/Graphics/SVG/1.1/DTD/svg11.dtd">
<svg version="1.1" id="Layer_1" xmlns="http://www.w3.org/2000/svg" xmlns:xlink="http://www.w3.org/1999/xlink" x="0px" y="0px"
	 width="500px" height="60px" viewBox="0 0 500 60" enable-background="new 0 0 500 60" xml:space="preserve">
<path fill-rule="evenodd" clip-rule="evenodd" fill="#6AA3AD" d="M0,10.5h65v25v25H0l25-25L0,10.5z"/>
<path fill-rule="evenodd" clip-rule="evenodd" fill="#6AA3AD" d="M475,35.5l25,25h-65v-25v-25h65L475,35.5z"/>
<path fill-rule="evenodd" clip-rule="evenodd" fill="#48767E" d="M40,50l25,10V50H40z"/>
<path fill-rule="evenodd" clip-rule="evenodd" fill="#48767E" d="M435,50v10l25-10H435z"/>
<path fill-rule="evenodd" clip-rule="evenodd" fill="#6AA3AD" d="M40,0h420v25v25H40V25V0z"/>
<g opacity="0.2">
	<path fill="#1E3C40" d="M132.764,18.406h1.898l10.688,13.102V18.406h1.934V35h-1.816l-10.77-13.195V35h-1.934V18.406z"/>
	<path fill="#1E3C40" d="M151.596,18.406h12.387v1.969h-10.219v4.477h9.105v1.969h-9.105v6.211h10.453V35h-12.621V18.406z"/>
	<path fill="#1E3C40" d="M168.26,31.232c-0.367-0.621-0.652-1.297-0.855-2.027s-0.305-1.514-0.305-2.35s0.107-1.635,0.322-2.396
		s0.521-1.465,0.92-2.109s0.875-1.225,1.43-1.74s1.172-0.953,1.852-1.312c1.422-0.75,2.973-1.125,4.652-1.125
		c2.469,0,4.512,0.688,6.129,2.062l-1.219,1.664c-1.367-1.188-3.074-1.781-5.121-1.781c-1.852,0-3.422,0.609-4.711,1.828
		c-1.305,1.227-1.957,2.754-1.957,4.582c0,1.992,0.645,3.617,1.934,4.875c1.281,1.258,2.918,1.887,4.91,1.887
		c1.508,0,2.855-0.441,4.043-1.324c0.336-0.25,0.621-0.512,0.855-0.785v-1.793h-5.754v-1.969h7.922V35h-2.168v-1.605
		c-0.891,0.805-2.082,1.363-3.574,1.676c-0.547,0.109-1.184,0.164-1.91,0.164s-1.465-0.092-2.215-0.275s-1.445-0.449-2.086-0.797
		s-1.225-0.768-1.752-1.26S168.627,31.854,168.26,31.232z"/>
	<path fill="#1E3C40" d="M193.514,18.406h1.23L201.928,35h-2.367l-1.57-3.633h-8.309L187.982,35h-2.227L193.514,18.406z
		 M197.146,29.398l-1.5-3.48c-0.188-0.438-0.371-0.891-0.551-1.359l-0.469-1.324c-0.297-0.859-0.473-1.445-0.527-1.758h-0.141
		c-0.062,0.312-0.203,0.758-0.422,1.336l-0.598,1.523c-0.18,0.438-0.375,0.883-0.586,1.336l-1.746,3.727H197.146z"/>
	<path fill="#1E3C40" d="M209.24,20.375h-6.234v-1.969h14.637v1.969h-6.234V35h-2.168V20.375z"/>
	<path fill="#1E3C40" d="M220.584,18.406h2.168V35h-2.168V18.406z"/>
	<path fill="#1E3C40" d="M225.201,18.406h2.426l4.312,9.527c0.195,0.438,0.375,0.871,0.539,1.301
		c0.375,0.961,0.664,1.746,0.867,2.355h0.105c0.109-0.352,0.23-0.707,0.363-1.066l0.422-1.148c0.164-0.422,0.348-0.852,0.551-1.289
		l4.383-9.68h2.297l-7.617,16.828h-1.031L225.201,18.406z"/>
	<path fill="#1E3C40" d="M244.209,18.406h12.387v1.969h-10.219v4.477h9.105v1.969h-9.105v6.211h10.453V35h-12.621V18.406z"/>
	<path fill="#1E3C40" d="M271.971,20.375h-6.234v-1.969h14.637v1.969h-6.234V35h-2.168V20.375z"/>
	<path fill="#1E3C40" d="M281.709,18.406h2.52c2.438,6.055,3.727,9.262,3.867,9.621c0.32,0.875,0.531,1.469,0.633,1.781l0.293,0.832
		h0.105c0.102-0.367,0.211-0.742,0.328-1.125l0.398-1.242c0.148-0.453,0.312-0.926,0.492-1.418l3.035-8.449h0.668l3.129,8.273
		l1.348,3.961h0.105l0.832-2.672c0.148-0.469,0.301-0.91,0.457-1.324l2.988-8.238h2.52l-6.539,16.828h-0.668l-3.562-9.398
		c-0.102-0.25-0.203-0.535-0.305-0.855l-0.633-1.934h-0.07l-0.305,1.02c-0.086,0.289-0.18,0.59-0.281,0.902l-3.68,10.266h-0.668
		L281.709,18.406z"/>
	<path fill="#1E3C40" d="M308.135,18.406h12.387v1.969h-10.219v4.477h9.105v1.969h-9.105v6.211h10.453V35h-12.621V18.406z"/>
	<path fill="#1E3C40" d="M324.189,18.406h12.387v1.969h-10.219v4.477h9.105v1.969h-9.105v6.211h10.453V35h-12.621V18.406z"/>
	<path fill="#1E3C40" d="M345.107,20.375h-6.234v-1.969h14.637v1.969h-6.234V35h-2.168V20.375z"/>
	<path fill="#1E3C40" d="M356.908,31.262c1.453,0.938,2.93,1.555,4.43,1.852c0.508,0.102,1.023,0.152,1.547,0.152
		s1.064-0.049,1.623-0.146s1.053-0.26,1.482-0.486c0.969-0.516,1.453-1.309,1.453-2.379c0-1.102-0.812-1.871-2.438-2.309
		c-0.477-0.125-0.984-0.238-1.523-0.34l-1.676-0.293c-2.133-0.367-3.621-0.906-4.465-1.617c-0.781-0.648-1.172-1.523-1.172-2.625
		c0-1.5,0.719-2.715,2.156-3.645c1.281-0.836,2.793-1.254,4.535-1.254c1.672,0,3.176,0.273,4.512,0.82
		c0.477,0.188,0.973,0.422,1.488,0.703l-0.797,1.91c-1.133-0.68-2.469-1.121-4.008-1.324c-0.484-0.07-0.953-0.105-1.406-0.105
		c-1.039,0-1.957,0.199-2.754,0.598c-0.93,0.469-1.395,1.117-1.395,1.945c0,0.875,0.59,1.516,1.77,1.922
		c0.531,0.188,1.133,0.34,1.805,0.457l2.086,0.363c1.758,0.328,2.977,0.699,3.656,1.113s1.182,0.877,1.506,1.389
		s0.486,1.191,0.486,2.039s-0.199,1.607-0.598,2.279s-0.93,1.227-1.594,1.664c-1.297,0.867-2.949,1.301-4.957,1.301
		c-1.875,0-3.637-0.406-5.285-1.219c-0.539-0.266-1.039-0.57-1.5-0.914L356.908,31.262z"/>
</g>
<g>
	<path fill="#FFFFFF" d="M131.764,17.406h1.898l10.688,13.102V17.406h1.934V34h-1.816l-10.77-13.195V34h-1.934V17.406z"/>
	<path fill="#FFFFFF" d="M150.596,17.406h12.387v1.969h-10.219v4.477h9.105v1.969h-9.105v6.211h10.453V34h-12.621V17.406z"/>
	<path fill="#FFFFFF" d="M167.26,30.232c-0.367-0.621-0.652-1.297-0.855-2.027s-0.305-1.514-0.305-2.35s0.107-1.635,0.322-2.396
		s0.521-1.465,0.92-2.109s0.875-1.225,1.43-1.74s1.172-0.953,1.852-1.312c1.422-0.75,2.973-1.125,4.652-1.125
		c2.469,0,4.512,0.688,6.129,2.062l-1.219,1.664c-1.367-1.188-3.074-1.781-5.121-1.781c-1.852,0-3.422,0.609-4.711,1.828
		c-1.305,1.227-1.957,2.754-1.957,4.582c0,1.992,0.645,3.617,1.934,4.875c1.281,1.258,2.918,1.887,4.91,1.887
		c1.508,0,2.855-0.441,4.043-1.324c0.336-0.25,0.621-0.512,0.855-0.785v-1.793h-5.754v-1.969h7.922V34h-2.168v-1.605
		c-0.891,0.805-2.082,1.363-3.574,1.676c-0.547,0.109-1.184,0.164-1.91,0.164s-1.465-0.092-2.215-0.275s-1.445-0.449-2.086-0.797
		s-1.225-0.768-1.752-1.26S167.627,30.854,167.26,30.232z"/>
	<path fill="#FFFFFF" d="M192.514,17.406h1.23L200.928,34h-2.367l-1.57-3.633h-8.309L186.982,34h-2.227L192.514,17.406z
		 M196.146,28.398l-1.5-3.48c-0.188-0.438-0.371-0.891-0.551-1.359l-0.469-1.324c-0.297-0.859-0.473-1.445-0.527-1.758h-0.141
		c-0.062,0.312-0.203,0.758-0.422,1.336l-0.598,1.523c-0.18,0.438-0.375,0.883-0.586,1.336l-1.746,3.727H196.146z"/>
	<path fill="#FFFFFF" d="M208.24,19.375h-6.234v-1.969h14.637v1.969h-6.234V34h-2.168V19.375z"/>
	<path fill="#FFFFFF" d="M219.584,17.406h2.168V34h-2.168V17.406z"/>
	<path fill="#FFFFFF" d="M224.201,17.406h2.426l4.312,9.527c0.195,0.438,0.375,0.871,0.539,1.301
		c0.375,0.961,0.664,1.746,0.867,2.355h0.105c0.109-0.352,0.23-0.707,0.363-1.066l0.422-1.148c0.164-0.422,0.348-0.852,0.551-1.289
		l4.383-9.68h2.297l-7.617,16.828h-1.031L224.201,17.406z"/>
	<path fill="#FFFFFF" d="M243.209,17.406h12.387v1.969h-10.219v4.477h9.105v1.969h-9.105v6.211h10.453V34h-12.621V17.406z"/>
	<path fill="#FFFFFF" d="M270.971,19.375h-6.234v-1.969h14.637v1.969h-6.234V34h-2.168V19.375z"/>
	<path fill="#FFFFFF" d="M280.709,17.406h2.52c2.438,6.055,3.727,9.262,3.867,9.621c0.32,0.875,0.531,1.469,0.633,1.781l0.293,0.832
		h0.105c0.102-0.367,0.211-0.742,0.328-1.125l0.398-1.242c0.148-0.453,0.312-0.926,0.492-1.418l3.035-8.449h0.668l3.129,8.273
		l1.348,3.961h0.105l0.832-2.672c0.148-0.469,0.301-0.91,0.457-1.324l2.988-8.238h2.52l-6.539,16.828h-0.668l-3.562-9.398
		c-0.102-0.25-0.203-0.535-0.305-0.855l-0.633-1.934h-0.07l-0.305,1.02c-0.086,0.289-0.18,0.59-0.281,0.902l-3.68,10.266h-0.668
		L280.709,17.406z"/>
	<path fill="#FFFFFF" d="M307.135,17.406h12.387v1.969h-10.219v4.477h9.105v1.969h-9.105v6.211h10.453V34h-12.621V17.406z"/>
	<path fill="#FFFFFF" d="M323.189,17.406h12.387v1.969h-10.219v4.477h9.105v1.969h-9.105v6.211h10.453V34h-12.621V17.406z"/>
	<path fill="#FFFFFF" d="M344.107,19.375h-6.234v-1.969h14.637v1.969h-6.234V34h-2.168V19.375z"/>
	<path fill="#FFFFFF" d="M355.908,30.262c1.453,0.938,2.93,1.555,4.43,1.852c0.508,0.102,1.023,0.152,1.547,0.152
		s1.064-0.049,1.623-0.146s1.053-0.26,1.482-0.486c0.969-0.516,1.453-1.309,1.453-2.379c0-1.102-0.812-1.871-2.438-2.309
		c-0.477-0.125-0.984-0.238-1.523-0.34l-1.676-0.293c-2.133-0.367-3.621-0.906-4.465-1.617c-0.781-0.648-1.172-1.523-1.172-2.625
		c0-1.5,0.719-2.715,2.156-3.645c1.281-0.836,2.793-1.254,4.535-1.254c1.672,0,3.176,0.273,4.512,0.82
		c0.477,0.188,0.973,0.422,1.488,0.703l-0.797,1.91c-1.133-0.68-2.469-1.121-4.008-1.324c-0.484-0.07-0.953-0.105-1.406-0.105
		c-1.039,0-1.957,0.199-2.754,0.598c-0.93,0.469-1.395,1.117-1.395,1.945c0,0.875,0.59,1.516,1.77,1.922
		c0.531,0.188,1.133,0.34,1.805,0.457l2.086,0.363c1.758,0.328,2.977,0.699,3.656,1.113s1.182,0.877,1.506,1.389
		s0.486,1.191,0.486,2.039s-0.199,1.607-0.598,2.279s-0.93,1.227-1.594,1.664c-1.297,0.867-2.949,1.301-4.957,1.301
		c-1.875,0-3.637-0.406-5.285-1.219c-0.539-0.266-1.039-0.57-1.5-0.914L355.908,30.262z"/>
</g>
<image display="none" overflow="visible" width="500" height="60" id="qZ7WBi" xlink:href="1FF56C8E23989170.jpg" >
</image>
</svg>
