<?xml version="1.0" encoding="utf-8"?>
<!-- Generator: Adobe Illustrator 16.0.0, SVG Export Plug-In . SVG Version: 6.00 Build 0)  -->
<!DOCTYPE svg PUBLIC "-//W3C//DTD SVG 1.1//EN" "http://www.w3.org/Graphics/SVG/1.1/DTD/svg11.dtd">
<svg version="1.1" id="Layer_1" xmlns="http://www.w3.org/2000/svg" xmlns:xlink="http://www.w3.org/1999/xlink" x="0px" y="0px"
	 width="500px" height="60px" viewBox="0 0 500 60" enable-background="new 0 0 500 60" xml:space="preserve">
<path fill-rule="evenodd" clip-rule="evenodd" fill="#6AA3AD" d="M0,10.5h65v25v25H0l25-25L0,10.5z"/>
<path fill-rule="evenodd" clip-rule="evenodd" fill="#6AA3AD" d="M475,35.5l25,25h-65v-25v-25h65L475,35.5z"/>
<path fill-rule="evenodd" clip-rule="evenodd" fill="#48767E" d="M40,50l25,10V50H40z"/>
<path fill-rule="evenodd" clip-rule="evenodd" fill="#48767E" d="M435,50v10l25-10H435z"/>
<path fill-rule="evenodd" clip-rule="evenodd" fill="#6AA3AD" d="M40,0h420v25v25H40V25V0z"/>
<g opacity="0.2">
	<path fill="#1E3C40" d="M137.492,18.406h6.574c2.219,0,3.992,0.5,5.32,1.5c1.438,1.078,2.156,2.629,2.156,4.652
		c0,2.109-0.758,3.789-2.273,5.039c-1.438,1.18-3.281,1.77-5.531,1.77h-4.078V35h-2.168V18.406z M144.031,29.398
		c1.594,0,2.852-0.398,3.773-1.195c0.961-0.828,1.441-1.996,1.441-3.504c0-1.445-0.539-2.547-1.617-3.305
		c-0.969-0.68-2.27-1.02-3.902-1.02h-4.066v9.023H144.031z"/>
	<path fill="#1E3C40" d="M156.811,32.896c-0.816-0.738-1.461-1.619-1.934-2.643s-0.709-2.055-0.709-3.094s0.107-1.939,0.322-2.701
		s0.521-1.465,0.92-2.109s0.875-1.225,1.43-1.74s1.172-0.953,1.852-1.312c1.422-0.75,2.973-1.125,4.652-1.125
		c1.609,0,3.109,0.359,4.5,1.078c1.352,0.703,2.43,1.68,3.234,2.93c0.82,1.305,1.23,2.754,1.23,4.348
		c0,2.523-0.891,4.613-2.672,6.27c-1.117,1.039-2.465,1.754-4.043,2.145c-0.789,0.195-1.703,0.293-2.742,0.293
		s-2.102-0.205-3.188-0.615S157.627,33.635,156.811,32.896z M158.416,21.945c-0.605,0.57-1.082,1.246-1.43,2.027
		s-0.521,1.641-0.521,2.578s0.18,1.816,0.539,2.637s0.852,1.535,1.477,2.145c1.336,1.305,2.957,1.957,4.863,1.957
		c1.852,0,3.422-0.609,4.711-1.828c1.305-1.234,1.957-2.762,1.957-4.582c0-1.234-0.312-2.379-0.938-3.434
		c-0.586-1-1.41-1.805-2.473-2.414c-1.047-0.609-2.117-0.914-3.211-0.914s-2.045,0.162-2.854,0.486S159.021,21.375,158.416,21.945z"
		/>
	<path fill="#1E3C40" d="M176.527,31.262c1.453,0.938,2.93,1.555,4.43,1.852c0.508,0.102,1.023,0.152,1.547,0.152
		s1.064-0.049,1.623-0.146s1.053-0.26,1.482-0.486c0.969-0.516,1.453-1.309,1.453-2.379c0-1.102-0.812-1.871-2.438-2.309
		c-0.477-0.125-0.984-0.238-1.523-0.34l-1.676-0.293c-2.133-0.367-3.621-0.906-4.465-1.617c-0.781-0.648-1.172-1.523-1.172-2.625
		c0-1.5,0.719-2.715,2.156-3.645c1.281-0.836,2.793-1.254,4.535-1.254c1.672,0,3.176,0.273,4.512,0.82
		c0.477,0.188,0.973,0.422,1.488,0.703l-0.797,1.91c-1.133-0.68-2.469-1.121-4.008-1.324c-0.484-0.07-0.953-0.105-1.406-0.105
		c-1.039,0-1.957,0.199-2.754,0.598c-0.93,0.469-1.395,1.117-1.395,1.945c0,0.875,0.59,1.516,1.77,1.922
		c0.531,0.188,1.133,0.34,1.805,0.457l2.086,0.363c1.758,0.328,2.977,0.699,3.656,1.113s1.182,0.877,1.506,1.389
		s0.486,1.191,0.486,2.039s-0.199,1.607-0.598,2.279s-0.93,1.227-1.594,1.664c-1.297,0.867-2.949,1.301-4.957,1.301
		c-1.875,0-3.637-0.406-5.285-1.219c-0.539-0.266-1.039-0.57-1.5-0.914L176.527,31.262z"/>
	<path fill="#1E3C40" d="M193.168,18.406h2.168V35h-2.168V18.406z"/>
	<path fill="#1E3C40" d="M204.512,20.375h-6.234v-1.969h14.637v1.969h-6.234V35h-2.168V20.375z"/>
	<path fill="#1E3C40" d="M215.855,18.406h2.168V35h-2.168V18.406z"/>
	<path fill="#1E3C40" d="M220.473,18.406h2.426l4.312,9.527c0.195,0.438,0.375,0.871,0.539,1.301
		c0.375,0.961,0.664,1.746,0.867,2.355h0.105c0.109-0.352,0.23-0.707,0.363-1.066l0.422-1.148c0.164-0.422,0.348-0.852,0.551-1.289
		l4.383-9.68h2.297l-7.617,16.828h-1.031L220.473,18.406z"/>
	<path fill="#1E3C40" d="M239.48,18.406h12.387v1.969h-10.219v4.477h9.105v1.969h-9.105v6.211h10.453V35H239.48V18.406z"/>
	<path fill="#1E3C40" d="M267.242,20.375h-6.234v-1.969h14.637v1.969h-6.234V35h-2.168V20.375z"/>
	<path fill="#1E3C40" d="M276.98,18.406h2.52c2.438,6.055,3.727,9.262,3.867,9.621c0.32,0.875,0.531,1.469,0.633,1.781l0.293,0.832
		h0.105c0.102-0.367,0.211-0.742,0.328-1.125l0.398-1.242c0.148-0.453,0.312-0.926,0.492-1.418l3.035-8.449h0.668l3.129,8.273
		l1.348,3.961h0.105l0.832-2.672c0.148-0.469,0.301-0.91,0.457-1.324l2.988-8.238h2.52l-6.539,16.828h-0.668l-3.562-9.398
		c-0.102-0.25-0.203-0.535-0.305-0.855l-0.633-1.934h-0.07l-0.305,1.02c-0.086,0.289-0.18,0.59-0.281,0.902l-3.68,10.266h-0.668
		L276.98,18.406z"/>
	<path fill="#1E3C40" d="M303.406,18.406h12.387v1.969h-10.219v4.477h9.105v1.969h-9.105v6.211h10.453V35h-12.621V18.406z"/>
	<path fill="#1E3C40" d="M319.461,18.406h12.387v1.969h-10.219v4.477h9.105v1.969h-9.105v6.211h10.453V35h-12.621V18.406z"/>
	<path fill="#1E3C40" d="M340.379,20.375h-6.234v-1.969h14.637v1.969h-6.234V35h-2.168V20.375z"/>
	<path fill="#1E3C40" d="M352.18,31.262c1.453,0.938,2.93,1.555,4.43,1.852c0.508,0.102,1.023,0.152,1.547,0.152
		s1.064-0.049,1.623-0.146s1.053-0.26,1.482-0.486c0.969-0.516,1.453-1.309,1.453-2.379c0-1.102-0.812-1.871-2.438-2.309
		c-0.477-0.125-0.984-0.238-1.523-0.34l-1.676-0.293c-2.133-0.367-3.621-0.906-4.465-1.617c-0.781-0.648-1.172-1.523-1.172-2.625
		c0-1.5,0.719-2.715,2.156-3.645c1.281-0.836,2.793-1.254,4.535-1.254c1.672,0,3.176,0.273,4.512,0.82
		c0.477,0.188,0.973,0.422,1.488,0.703l-0.797,1.91c-1.133-0.68-2.469-1.121-4.008-1.324c-0.484-0.07-0.953-0.105-1.406-0.105
		c-1.039,0-1.957,0.199-2.754,0.598c-0.93,0.469-1.395,1.117-1.395,1.945c0,0.875,0.59,1.516,1.77,1.922
		c0.531,0.188,1.133,0.34,1.805,0.457l2.086,0.363c1.758,0.328,2.977,0.699,3.656,1.113s1.182,0.877,1.506,1.389
		s0.486,1.191,0.486,2.039s-0.199,1.607-0.598,2.279s-0.93,1.227-1.594,1.664c-1.297,0.867-2.949,1.301-4.957,1.301
		c-1.875,0-3.637-0.406-5.285-1.219c-0.539-0.266-1.039-0.57-1.5-0.914L352.18,31.262z"/>
</g>
<g>
	<path fill="#FFFFFF" d="M136.492,17.406h6.574c2.219,0,3.992,0.5,5.32,1.5c1.438,1.078,2.156,2.629,2.156,4.652
		c0,2.109-0.758,3.789-2.273,5.039c-1.438,1.18-3.281,1.77-5.531,1.77h-4.078V34h-2.168V17.406z M143.031,28.398
		c1.594,0,2.852-0.398,3.773-1.195c0.961-0.828,1.441-1.996,1.441-3.504c0-1.445-0.539-2.547-1.617-3.305
		c-0.969-0.68-2.27-1.02-3.902-1.02h-4.066v9.023H143.031z"/>
	<path fill="#FFFFFF" d="M155.811,31.896c-0.816-0.738-1.461-1.619-1.934-2.643s-0.709-2.055-0.709-3.094s0.107-1.939,0.322-2.701
		s0.521-1.465,0.92-2.109s0.875-1.225,1.43-1.74s1.172-0.953,1.852-1.312c1.422-0.75,2.973-1.125,4.652-1.125
		c1.609,0,3.109,0.359,4.5,1.078c1.352,0.703,2.43,1.68,3.234,2.93c0.82,1.305,1.23,2.754,1.23,4.348
		c0,2.523-0.891,4.613-2.672,6.27c-1.117,1.039-2.465,1.754-4.043,2.145c-0.789,0.195-1.703,0.293-2.742,0.293
		s-2.102-0.205-3.188-0.615S156.627,32.635,155.811,31.896z M157.416,20.945c-0.605,0.57-1.082,1.246-1.43,2.027
		s-0.521,1.641-0.521,2.578s0.18,1.816,0.539,2.637s0.852,1.535,1.477,2.145c1.336,1.305,2.957,1.957,4.863,1.957
		c1.852,0,3.422-0.609,4.711-1.828c1.305-1.234,1.957-2.762,1.957-4.582c0-1.234-0.312-2.379-0.938-3.434
		c-0.586-1-1.41-1.805-2.473-2.414c-1.047-0.609-2.117-0.914-3.211-0.914s-2.045,0.162-2.854,0.486S158.021,20.375,157.416,20.945z"
		/>
	<path fill="#FFFFFF" d="M175.527,30.262c1.453,0.938,2.93,1.555,4.43,1.852c0.508,0.102,1.023,0.152,1.547,0.152
		s1.064-0.049,1.623-0.146s1.053-0.26,1.482-0.486c0.969-0.516,1.453-1.309,1.453-2.379c0-1.102-0.812-1.871-2.438-2.309
		c-0.477-0.125-0.984-0.238-1.523-0.34l-1.676-0.293c-2.133-0.367-3.621-0.906-4.465-1.617c-0.781-0.648-1.172-1.523-1.172-2.625
		c0-1.5,0.719-2.715,2.156-3.645c1.281-0.836,2.793-1.254,4.535-1.254c1.672,0,3.176,0.273,4.512,0.82
		c0.477,0.188,0.973,0.422,1.488,0.703l-0.797,1.91c-1.133-0.68-2.469-1.121-4.008-1.324c-0.484-0.07-0.953-0.105-1.406-0.105
		c-1.039,0-1.957,0.199-2.754,0.598c-0.93,0.469-1.395,1.117-1.395,1.945c0,0.875,0.59,1.516,1.77,1.922
		c0.531,0.188,1.133,0.34,1.805,0.457l2.086,0.363c1.758,0.328,2.977,0.699,3.656,1.113s1.182,0.877,1.506,1.389
		s0.486,1.191,0.486,2.039s-0.199,1.607-0.598,2.279s-0.93,1.227-1.594,1.664c-1.297,0.867-2.949,1.301-4.957,1.301
		c-1.875,0-3.637-0.406-5.285-1.219c-0.539-0.266-1.039-0.57-1.5-0.914L175.527,30.262z"/>
	<path fill="#FFFFFF" d="M192.168,17.406h2.168V34h-2.168V17.406z"/>
	<path fill="#FFFFFF" d="M203.512,19.375h-6.234v-1.969h14.637v1.969h-6.234V34h-2.168V19.375z"/>
	<path fill="#FFFFFF" d="M214.855,17.406h2.168V34h-2.168V17.406z"/>
	<path fill="#FFFFFF" d="M219.473,17.406h2.426l4.312,9.527c0.195,0.438,0.375,0.871,0.539,1.301
		c0.375,0.961,0.664,1.746,0.867,2.355h0.105c0.109-0.352,0.23-0.707,0.363-1.066l0.422-1.148c0.164-0.422,0.348-0.852,0.551-1.289
		l4.383-9.68h2.297l-7.617,16.828h-1.031L219.473,17.406z"/>
	<path fill="#FFFFFF" d="M238.48,17.406h12.387v1.969h-10.219v4.477h9.105v1.969h-9.105v6.211h10.453V34H238.48V17.406z"/>
	<path fill="#FFFFFF" d="M266.242,19.375h-6.234v-1.969h14.637v1.969h-6.234V34h-2.168V19.375z"/>
	<path fill="#FFFFFF" d="M275.98,17.406h2.52c2.438,6.055,3.727,9.262,3.867,9.621c0.32,0.875,0.531,1.469,0.633,1.781l0.293,0.832
		h0.105c0.102-0.367,0.211-0.742,0.328-1.125l0.398-1.242c0.148-0.453,0.312-0.926,0.492-1.418l3.035-8.449h0.668l3.129,8.273
		l1.348,3.961h0.105l0.832-2.672c0.148-0.469,0.301-0.91,0.457-1.324l2.988-8.238h2.52l-6.539,16.828h-0.668l-3.562-9.398
		c-0.102-0.25-0.203-0.535-0.305-0.855l-0.633-1.934h-0.07l-0.305,1.02c-0.086,0.289-0.18,0.59-0.281,0.902l-3.68,10.266h-0.668
		L275.98,17.406z"/>
	<path fill="#FFFFFF" d="M302.406,17.406h12.387v1.969h-10.219v4.477h9.105v1.969h-9.105v6.211h10.453V34h-12.621V17.406z"/>
	<path fill="#FFFFFF" d="M318.461,17.406h12.387v1.969h-10.219v4.477h9.105v1.969h-9.105v6.211h10.453V34h-12.621V17.406z"/>
	<path fill="#FFFFFF" d="M339.379,19.375h-6.234v-1.969h14.637v1.969h-6.234V34h-2.168V19.375z"/>
	<path fill="#FFFFFF" d="M351.18,30.262c1.453,0.938,2.93,1.555,4.43,1.852c0.508,0.102,1.023,0.152,1.547,0.152
		s1.064-0.049,1.623-0.146s1.053-0.26,1.482-0.486c0.969-0.516,1.453-1.309,1.453-2.379c0-1.102-0.812-1.871-2.438-2.309
		c-0.477-0.125-0.984-0.238-1.523-0.34l-1.676-0.293c-2.133-0.367-3.621-0.906-4.465-1.617c-0.781-0.648-1.172-1.523-1.172-2.625
		c0-1.5,0.719-2.715,2.156-3.645c1.281-0.836,2.793-1.254,4.535-1.254c1.672,0,3.176,0.273,4.512,0.82
		c0.477,0.188,0.973,0.422,1.488,0.703l-0.797,1.91c-1.133-0.68-2.469-1.121-4.008-1.324c-0.484-0.07-0.953-0.105-1.406-0.105
		c-1.039,0-1.957,0.199-2.754,0.598c-0.93,0.469-1.395,1.117-1.395,1.945c0,0.875,0.59,1.516,1.77,1.922
		c0.531,0.188,1.133,0.34,1.805,0.457l2.086,0.363c1.758,0.328,2.977,0.699,3.656,1.113s1.182,0.877,1.506,1.389
		s0.486,1.191,0.486,2.039s-0.199,1.607-0.598,2.279s-0.93,1.227-1.594,1.664c-1.297,0.867-2.949,1.301-4.957,1.301
		c-1.875,0-3.637-0.406-5.285-1.219c-0.539-0.266-1.039-0.57-1.5-0.914L351.18,30.262z"/>
</g>
<image display="none" overflow="visible" width="500" height="60" id="qZ7WBi" xlink:href="7F9CD282272A046C.jpg" >
</image>
</svg>
