<?xml version="1.0" encoding="utf-8"?>
<!-- Generator: Adobe Illustrator 16.0.0, SVG Export Plug-In . SVG Version: 6.00 Build 0)  -->
<!DOCTYPE svg PUBLIC "-//W3C//DTD SVG 1.1//EN" "http://www.w3.org/Graphics/SVG/1.1/DTD/svg11.dtd">
<svg version="1.1" id="Layer_1" xmlns="http://www.w3.org/2000/svg" xmlns:xlink="http://www.w3.org/1999/xlink" x="0px" y="0px"
	 width="498.333px" height="153.5px" viewBox="0 0 498.333 153.5" enable-background="new 0 0 498.333 153.5" xml:space="preserve">
<path fill-rule="evenodd" clip-rule="evenodd" fill="#AD0515" d="M249,0v153l229-29L498,0H249z"/>
<path fill-rule="evenodd" clip-rule="evenodd" fill="#C70C1E" d="M0,0l20,124l229,29V0H0z"/>
<g opacity="0.15">
	<path fill="#2F747D" d="M53.142,65.414V51.445c0-9.969,4.078-14.953,12.234-14.953c1.719,0,3.246,0.23,4.582,0.691
		s2.457,1.098,3.363,1.91s1.652,1.812,2.238,3s1.008,2.477,1.266,3.867s0.387,2.922,0.387,4.594v3.633h-8.391v-3.891
		c0-0.766-0.016-1.426-0.047-1.98s-0.113-1.188-0.246-1.898s-0.312-1.289-0.539-1.734s-0.562-0.824-1.008-1.137
		s-0.98-0.469-1.605-0.469c-2.469,0-3.703,2.078-3.703,6.234v18.211c0,4.141,1.234,6.211,3.703,6.211
		c0.734,0,1.352-0.211,1.852-0.633s0.859-1.02,1.078-1.793s0.367-1.532,0.445-2.274s0.117-1.59,0.117-2.543v-4.336h8.344v3.562
		c-0.031,1.609-0.164,3.094-0.398,4.453c-0.234,1.36-0.633,2.68-1.195,3.961s-1.277,2.363-2.145,3.246s-1.988,1.594-3.363,2.133
		s-2.953,0.809-4.734,0.809c-1.828,0-3.449-0.262-4.863-0.785s-2.578-1.227-3.492-2.109s-1.668-1.969-2.262-3.258
		s-1.012-2.645-1.254-4.067C53.263,68.679,53.142,67.117,53.142,65.414z"/>
	<path fill="#2F747D" d="M84.076,79.5V37.312h8.531v17.297h6.117V37.312h8.578V79.5h-8.578V60.679h-6.117V79.5H84.076z"/>
	<path fill="#2F747D" d="M115.198,79.5V37.312h9.281c2.109,0,3.965,0.199,5.566,0.598s3.004,1.023,4.207,1.875s2.117,2,2.742,3.445
		s0.938,3.176,0.938,5.191c0,0.875-0.031,1.656-0.094,2.344s-0.207,1.473-0.434,2.355s-0.535,1.664-0.926,2.344
		s-0.953,1.348-1.688,2.004s-1.602,1.203-2.602,1.641c2.531,8.031,4.734,14.829,6.609,20.391h-8.836l-4.828-19.43h-1.406V79.5
		H115.198z M123.729,54.867h2.438c0.656,0,1.219-0.219,1.688-0.656s0.809-0.992,1.02-1.664s0.359-1.289,0.445-1.852
		s0.129-1.094,0.129-1.594s-0.035-1.016-0.105-1.547s-0.195-1.121-0.375-1.77s-0.477-1.18-0.891-1.594s-0.918-0.621-1.512-0.621
		h-2.836V54.867z"/>
	<path fill="#2F747D" d="M144.376,79.5V37.312h8.531V79.5H144.376z"/>
	<path fill="#2F747D" d="M159.349,67.429l8.648-1.664c0,0.859,0.016,1.617,0.047,2.273s0.113,1.371,0.246,2.145
		c0.133,0.774,0.312,1.407,0.539,1.899s0.547,0.906,0.961,1.242s0.902,0.504,1.465,0.504c1.688,0,2.531-1.078,2.531-3.234
		c0-2.954-1.664-5.891-4.992-8.813l-2.648-2.25c-0.844-0.703-1.516-1.289-2.016-1.758s-1.09-1.102-1.77-1.898
		s-1.211-1.566-1.594-2.309s-0.711-1.637-0.984-2.684s-0.41-2.156-0.41-3.328c0-3.422,1.086-6.129,3.258-8.121
		s5.055-2.988,8.648-2.988c2.984,0,5.523,1.062,7.617,3.188s3.141,4.688,3.141,7.688l-0.023,0.305c0,0.203,0,0.438,0,0.703
		l-8.812,1.219c0-0.172,0.012-0.441,0.035-0.809s0.035-0.668,0.035-0.902c0-0.562-0.039-1.102-0.117-1.617s-0.207-1.031-0.387-1.547
		s-0.457-0.926-0.832-1.23s-0.828-0.457-1.359-0.457c-0.938,0-1.641,0.367-2.109,1.102s-0.703,1.602-0.703,2.602
		c0,0.875,0.137,1.695,0.41,2.461s0.688,1.48,1.242,2.145s1.066,1.215,1.535,1.652s1.094,0.973,1.875,1.605s1.336,1.098,1.664,1.395
		c1.203,1.062,2.219,2.059,3.047,2.988s1.609,1.98,2.344,3.152s1.285,2.438,1.652,3.797s0.551,2.828,0.551,4.406
		c0,2.954-1.055,5.372-3.164,7.254s-4.672,2.824-7.688,2.824c-1.953,0-3.688-0.359-5.203-1.078s-2.738-1.695-3.668-2.93
		s-1.645-2.602-2.145-4.102S159.427,69.148,159.349,67.429z"/>
	<path fill="#2F747D" d="M192.37,79.5V43.687h-6.188v-6.375h20.789v6.375h-6.07V79.5H192.37z"/>
	<path fill="#2F747D" d="M212.687,79.5V37.312h10.219l4.5,28.125l4.852-28.125h9.867V79.5h-6.281l-0.188-29.672
		c-0.469,3.047-1.289,7.992-2.461,14.836c-1.172,6.844-1.992,11.79-2.461,14.836h-6.375l-5.18-29.86l-0.188,29.86H212.687z"/>
	<path fill="#2F747D" d="M247.724,79.5l9.117-42.188h7.547l9.094,42.188h-8.414l-1.734-9.024h-5.508l-1.641,9.024H247.724z
		 M258.411,65.226h4.359l-2.133-15.656L258.411,65.226z"/>
	<path fill="#2F747D" d="M277.627,67.429l8.648-1.664c0,0.859,0.016,1.617,0.047,2.273s0.113,1.371,0.246,2.145
		c0.133,0.774,0.312,1.407,0.539,1.899s0.547,0.906,0.961,1.242s0.902,0.504,1.465,0.504c1.688,0,2.531-1.078,2.531-3.234
		c0-2.954-1.664-5.891-4.992-8.813l-2.648-2.25c-0.844-0.703-1.516-1.289-2.016-1.758s-1.09-1.102-1.77-1.898
		s-1.211-1.566-1.594-2.309s-0.711-1.637-0.984-2.684s-0.41-2.156-0.41-3.328c0-3.422,1.086-6.129,3.258-8.121
		s5.055-2.988,8.648-2.988c2.984,0,5.523,1.062,7.617,3.188s3.141,4.688,3.141,7.688l-0.023,0.305c0,0.203,0,0.438,0,0.703
		l-8.812,1.219c0-0.172,0.012-0.441,0.035-0.809s0.035-0.668,0.035-0.902c0-0.562-0.039-1.102-0.117-1.617s-0.207-1.031-0.387-1.547
		s-0.457-0.926-0.832-1.23s-0.828-0.457-1.359-0.457c-0.938,0-1.641,0.367-2.109,1.102s-0.703,1.602-0.703,2.602
		c0,0.875,0.137,1.695,0.41,2.461s0.688,1.48,1.242,2.145s1.066,1.215,1.535,1.652s1.094,0.973,1.875,1.605s1.336,1.098,1.664,1.395
		c1.203,1.062,2.219,2.059,3.047,2.988s1.609,1.98,2.344,3.152s1.285,2.438,1.652,3.797s0.551,2.828,0.551,4.406
		c0,2.954-1.055,5.372-3.164,7.254s-4.672,2.824-7.688,2.824c-1.953,0-3.688-0.359-5.203-1.078s-2.738-1.695-3.668-2.93
		s-1.645-2.602-2.145-4.102S277.705,69.148,277.627,67.429z"/>
	<path fill="#2F747D" d="M318.59,65.414V51.445c0-9.969,4.078-14.953,12.234-14.953c1.719,0,3.246,0.23,4.582,0.691
		s2.457,1.098,3.363,1.91s1.652,1.812,2.238,3s1.008,2.477,1.266,3.867s0.387,2.922,0.387,4.594v3.633h-8.391v-3.891
		c0-0.766-0.016-1.426-0.047-1.98s-0.113-1.188-0.246-1.898s-0.312-1.289-0.539-1.734s-0.562-0.824-1.008-1.137
		s-0.98-0.469-1.605-0.469c-2.469,0-3.703,2.078-3.703,6.234v18.211c0,4.141,1.234,6.211,3.703,6.211
		c0.734,0,1.352-0.211,1.852-0.633s0.859-1.02,1.078-1.793s0.367-1.532,0.445-2.274s0.117-1.59,0.117-2.543v-4.336h8.344v3.562
		c-0.031,1.609-0.164,3.094-0.398,4.453c-0.234,1.36-0.633,2.68-1.195,3.961s-1.277,2.363-2.145,3.246s-1.988,1.594-3.363,2.133
		s-2.953,0.809-4.734,0.809c-1.828,0-3.449-0.262-4.863-0.785s-2.578-1.227-3.492-2.109s-1.668-1.969-2.262-3.258
		s-1.012-2.645-1.254-4.067C318.711,68.679,318.59,67.117,318.59,65.414z"/>
	<path fill="#2F747D" d="M349.524,79.5V37.312h8.531v17.297h6.117V37.312h8.578V79.5h-8.578V60.679h-6.117V79.5H349.524z"/>
	<path fill="#2F747D" d="M380.647,79.5V37.312h17.602v5.859h-9.07v11.484h6.422v6h-6.422v12.985h9.07V79.5H380.647z"/>
	<path fill="#2F747D" d="M404.175,79.5V37.312h17.602v5.859h-9.07v11.484h6.422v6h-6.422v12.985h9.07V79.5H404.175z"/>
	<path fill="#2F747D" d="M427.704,79.5V37.312h9.281c2.109,0,3.965,0.199,5.566,0.598s3.004,1.023,4.207,1.875s2.117,2,2.742,3.445
		s0.938,3.176,0.938,5.191c0,0.875-0.031,1.656-0.094,2.344s-0.207,1.473-0.434,2.355s-0.535,1.664-0.926,2.344
		s-0.953,1.348-1.688,2.004s-1.602,1.203-2.602,1.641c2.531,8.031,4.734,14.829,6.609,20.391h-8.836l-4.828-19.43h-1.406V79.5
		H427.704z M436.235,54.867h2.438c0.656,0,1.219-0.219,1.688-0.656s0.809-0.992,1.02-1.664s0.359-1.289,0.445-1.852
		s0.129-1.094,0.129-1.594s-0.035-1.016-0.105-1.547s-0.195-1.121-0.375-1.77s-0.477-1.18-0.891-1.594s-0.918-0.621-1.512-0.621
		h-2.836V54.867z"/>
</g>
<g>
	<path fill="#FFFFFF" d="M50.142,62.414V48.445c0-9.969,4.078-14.953,12.234-14.953c1.719,0,3.246,0.23,4.582,0.691
		s2.457,1.098,3.363,1.91s1.652,1.812,2.238,3s1.008,2.477,1.266,3.867s0.387,2.922,0.387,4.594v3.633h-8.391v-3.891
		c0-0.766-0.016-1.426-0.047-1.98s-0.113-1.188-0.246-1.898s-0.312-1.289-0.539-1.734s-0.562-0.824-1.008-1.137
		s-0.98-0.469-1.605-0.469c-2.469,0-3.703,2.078-3.703,6.234v18.211c0,4.141,1.234,6.211,3.703,6.211
		c0.734,0,1.352-0.211,1.852-0.633c0.5-0.422,0.859-1.02,1.078-1.793s0.367-1.531,0.445-2.273s0.117-1.59,0.117-2.543v-4.336h8.344
		v3.562c-0.031,1.609-0.164,3.094-0.398,4.453s-0.633,2.68-1.195,3.961c-0.562,1.281-1.277,2.363-2.145,3.246
		s-1.988,1.594-3.363,2.133s-2.953,0.809-4.734,0.809c-1.828,0-3.449-0.262-4.863-0.785s-2.578-1.227-3.492-2.109
		s-1.668-1.969-2.262-3.258c-0.594-1.29-1.012-2.645-1.254-4.067S50.142,64.117,50.142,62.414z"/>
	<path fill="#FFFFFF" d="M81.076,76.5V34.312h8.531v17.297h6.117V34.312h8.578V76.5h-8.578V57.679h-6.117V76.5H81.076z"/>
	<path fill="#FFFFFF" d="M112.198,76.5V34.312h9.281c2.109,0,3.965,0.199,5.566,0.598s3.004,1.023,4.207,1.875s2.117,2,2.742,3.445
		s0.938,3.176,0.938,5.191c0,0.875-0.031,1.656-0.094,2.344s-0.207,1.473-0.434,2.355s-0.535,1.664-0.926,2.344
		s-0.953,1.348-1.688,2.004s-1.602,1.203-2.602,1.641c2.531,8.031,4.734,14.829,6.609,20.391h-8.836l-4.828-19.43h-1.406V76.5
		H112.198z M120.729,51.867h2.438c0.656,0,1.219-0.219,1.688-0.656s0.809-0.992,1.02-1.664s0.359-1.289,0.445-1.852
		s0.129-1.094,0.129-1.594s-0.035-1.016-0.105-1.547s-0.195-1.121-0.375-1.77s-0.477-1.18-0.891-1.594s-0.918-0.621-1.512-0.621
		h-2.836V51.867z"/>
	<path fill="#FFFFFF" d="M141.376,76.5V34.312h8.531V76.5H141.376z"/>
	<path fill="#FFFFFF" d="M156.349,64.429l8.648-1.664c0,0.859,0.016,1.617,0.047,2.273s0.113,1.371,0.246,2.145
		s0.312,1.406,0.539,1.898s0.547,0.906,0.961,1.242c0.414,0.336,0.902,0.504,1.465,0.504c1.688,0,2.531-1.079,2.531-3.235
		c0-2.953-1.664-5.891-4.992-8.812l-2.648-2.25c-0.844-0.703-1.516-1.289-2.016-1.758s-1.09-1.102-1.77-1.898
		s-1.211-1.566-1.594-2.309s-0.711-1.637-0.984-2.684s-0.41-2.156-0.41-3.328c0-3.422,1.086-6.129,3.258-8.121
		s5.055-2.988,8.648-2.988c2.984,0,5.523,1.062,7.617,3.188s3.141,4.688,3.141,7.688l-0.023,0.305c0,0.203,0,0.438,0,0.703
		l-8.812,1.219c0-0.172,0.012-0.441,0.035-0.809s0.035-0.668,0.035-0.902c0-0.562-0.039-1.102-0.117-1.617s-0.207-1.031-0.387-1.547
		s-0.457-0.926-0.832-1.23s-0.828-0.457-1.359-0.457c-0.938,0-1.641,0.367-2.109,1.102s-0.703,1.602-0.703,2.602
		c0,0.875,0.137,1.695,0.41,2.461s0.688,1.48,1.242,2.145s1.066,1.215,1.535,1.652s1.094,0.973,1.875,1.605s1.336,1.098,1.664,1.395
		c1.203,1.062,2.219,2.059,3.047,2.988s1.609,1.98,2.344,3.152s1.285,2.438,1.652,3.797s0.551,2.828,0.551,4.406
		c0,2.953-1.055,5.372-3.164,7.254s-4.672,2.824-7.688,2.824c-1.953,0-3.688-0.359-5.203-1.078s-2.738-1.695-3.668-2.93
		s-1.645-2.602-2.145-4.102C156.716,67.757,156.427,66.148,156.349,64.429z"/>
	<path fill="#FFFFFF" d="M189.37,76.5V40.687h-6.188v-6.375h20.789v6.375h-6.07V76.5H189.37z"/>
	<path fill="#FFFFFF" d="M209.687,76.5V34.312h10.219l4.5,28.125l4.852-28.125h9.867V76.5h-6.281l-0.188-29.672
		c-0.469,3.047-1.289,7.992-2.461,14.836s-1.992,11.79-2.461,14.836h-6.375l-5.18-29.86l-0.188,29.86H209.687z"/>
	<path fill="#FFFFFF" d="M244.724,76.5l9.117-42.188h7.547l9.094,42.188h-8.414l-1.734-9.024h-5.508l-1.641,9.024H244.724z
		 M255.411,62.226h4.359l-2.133-15.656L255.411,62.226z"/>
	<path fill="#FFFFFF" d="M274.627,64.429l8.648-1.664c0,0.859,0.016,1.617,0.047,2.273s0.113,1.371,0.246,2.145
		s0.312,1.406,0.539,1.898s0.547,0.906,0.961,1.242c0.414,0.336,0.902,0.504,1.465,0.504c1.688,0,2.531-1.079,2.531-3.235
		c0-2.953-1.664-5.891-4.992-8.812l-2.648-2.25c-0.844-0.703-1.516-1.289-2.016-1.758s-1.09-1.102-1.77-1.898
		s-1.211-1.566-1.594-2.309s-0.711-1.637-0.984-2.684s-0.41-2.156-0.41-3.328c0-3.422,1.086-6.129,3.258-8.121
		s5.055-2.988,8.648-2.988c2.984,0,5.523,1.062,7.617,3.188s3.141,4.688,3.141,7.688l-0.023,0.305c0,0.203,0,0.438,0,0.703
		l-8.812,1.219c0-0.172,0.012-0.441,0.035-0.809s0.035-0.668,0.035-0.902c0-0.562-0.039-1.102-0.117-1.617s-0.207-1.031-0.387-1.547
		s-0.457-0.926-0.832-1.23s-0.828-0.457-1.359-0.457c-0.938,0-1.641,0.367-2.109,1.102s-0.703,1.602-0.703,2.602
		c0,0.875,0.137,1.695,0.41,2.461s0.688,1.48,1.242,2.145s1.066,1.215,1.535,1.652s1.094,0.973,1.875,1.605s1.336,1.098,1.664,1.395
		c1.203,1.062,2.219,2.059,3.047,2.988s1.609,1.98,2.344,3.152s1.285,2.438,1.652,3.797s0.551,2.828,0.551,4.406
		c0,2.953-1.055,5.372-3.164,7.254s-4.672,2.824-7.688,2.824c-1.953,0-3.688-0.359-5.203-1.078s-2.738-1.695-3.668-2.93
		s-1.645-2.602-2.145-4.102C274.994,67.757,274.705,66.148,274.627,64.429z"/>
	<path fill="#FFFFFF" d="M315.59,62.414V48.445c0-9.969,4.078-14.953,12.234-14.953c1.719,0,3.246,0.23,4.582,0.691
		s2.457,1.098,3.363,1.91s1.652,1.812,2.238,3s1.008,2.477,1.266,3.867s0.387,2.922,0.387,4.594v3.633h-8.391v-3.891
		c0-0.766-0.016-1.426-0.047-1.98s-0.113-1.188-0.246-1.898s-0.312-1.289-0.539-1.734s-0.562-0.824-1.008-1.137
		s-0.98-0.469-1.605-0.469c-2.469,0-3.703,2.078-3.703,6.234v18.211c0,4.141,1.234,6.211,3.703,6.211
		c0.734,0,1.352-0.211,1.852-0.633c0.5-0.422,0.859-1.02,1.078-1.793s0.367-1.531,0.445-2.273s0.117-1.59,0.117-2.543v-4.336h8.344
		v3.562c-0.031,1.609-0.164,3.094-0.398,4.453s-0.633,2.68-1.195,3.961c-0.562,1.281-1.277,2.363-2.145,3.246
		s-1.988,1.594-3.363,2.133s-2.953,0.809-4.734,0.809c-1.828,0-3.449-0.262-4.863-0.785s-2.578-1.227-3.492-2.109
		s-1.668-1.969-2.262-3.258c-0.594-1.29-1.012-2.645-1.254-4.067S315.59,64.117,315.59,62.414z"/>
	<path fill="#FFFFFF" d="M346.524,76.5V34.312h8.531v17.297h6.117V34.312h8.578V76.5h-8.578V57.679h-6.117V76.5H346.524z"/>
	<path fill="#FFFFFF" d="M377.647,76.5V34.312h17.602v5.859h-9.07v11.484h6.422v6h-6.422v12.985h9.07V76.5H377.647z"/>
	<path fill="#FFFFFF" d="M401.175,76.5V34.312h17.602v5.859h-9.07v11.484h6.422v6h-6.422v12.985h9.07V76.5H401.175z"/>
	<path fill="#FFFFFF" d="M424.704,76.5V34.312h9.281c2.109,0,3.965,0.199,5.566,0.598s3.004,1.023,4.207,1.875s2.117,2,2.742,3.445
		s0.938,3.176,0.938,5.191c0,0.875-0.031,1.656-0.094,2.344s-0.207,1.473-0.434,2.355s-0.535,1.664-0.926,2.344
		s-0.953,1.348-1.688,2.004s-1.602,1.203-2.602,1.641c2.531,8.031,4.734,14.829,6.609,20.391h-8.836l-4.828-19.43h-1.406V76.5
		H424.704z M433.235,51.867h2.438c0.656,0,1.219-0.219,1.688-0.656s0.809-0.992,1.02-1.664s0.359-1.289,0.445-1.852
		s0.129-1.094,0.129-1.594s-0.035-1.016-0.105-1.547s-0.195-1.121-0.375-1.77s-0.477-1.18-0.891-1.594s-0.918-0.621-1.512-0.621
		h-2.836V51.867z"/>
</g>
<g>
	<path fill="#FFFFFF" d="M49.726,107.5v-14h2V106h3.5v1.5H49.726z"/>
	<path fill="#FFFFFF" d="M57.209,107.5v-14h2v14H57.209z"/>
	<path fill="#FFFFFF" d="M64.403,107.5l-3-14h2l1.477,7.5l0.516,3.5l0.531-3.5l1.477-7.5h2l-3,14H64.403z"/>
	<path fill="#FFFFFF" d="M71.457,107.5v-14h5.5V95h-3.5v4.5h2.5v1.5h-2.5v5h3.5v1.5H71.457z"/>
	<path fill="#FFFFFF" d="M87.002,107.641c-1.261,0-2.223-0.37-2.887-1.109s-1.035-1.75-1.113-3.031l2-0.5c0.099,2,0.766,3,2,3
		c1,0,1.5-0.5,1.5-1.5c0-0.297-0.04-0.571-0.121-0.824s-0.204-0.484-0.371-0.695s-0.317-0.38-0.453-0.508s-0.32-0.285-0.555-0.473
		l-2.5-2c-0.458-0.359-0.824-0.816-1.098-1.371s-0.41-1.187-0.41-1.895c0-1.031,0.32-1.852,0.961-2.461s1.489-0.914,2.547-0.914
		c1.136,0,2.038,0.277,2.707,0.832s1.082,1.34,1.238,2.355c0.016,0.109,0.034,0.261,0.055,0.453l-2,0.5
		c-0.005-0.089-0.019-0.222-0.039-0.398c-0.089-0.636-0.288-1.145-0.598-1.527S87.101,95,86.502,95
		c-0.479,0-0.849,0.134-1.109,0.402s-0.391,0.642-0.391,1.121c0,0.786,0.333,1.445,1,1.977l2.5,2c1.333,1.078,2,2.367,2,3.867
		c0,1.026-0.316,1.828-0.949,2.406S88.069,107.641,87.002,107.641z"/>
	<path fill="#FFFFFF" d="M92.923,107.5v-14h5.5V95h-3.5v4.5h2.5v1.5h-2.5v5h3.5v1.5H92.923z"/>
	<path fill="#FFFFFF" d="M100.61,107.5v-14h1.5l3.5,8.656V93.5h2v14h-1.422l-3.578-9.312v9.312H100.61z"/>
	<path fill="#FFFFFF" d="M112.062,107.5V95.281h-2.5V93.5h7v1.781h-2.5V107.5H112.062z"/>
	<path fill="#FFFFFF" d="M118.608,107.5v-14h2v14H118.608z"/>
	<path fill="#FFFFFF" d="M123.708,107.5v-14h2.766l1.984,10.719l1.984-10.719h2.766v14h-2V96.453l-2,11.047h-1.5l-2-11.047V107.5
		H123.708z"/>
	<path fill="#FFFFFF" d="M136.169,107.5v-14h5.5V95h-3.5v4.5h2.5v1.5h-2.5v5h3.5v1.5H136.169z"/>
	<path fill="#FFFFFF" d="M143.854,107.5v-14h1.5l3.5,8.656V93.5h2v14h-1.422l-3.578-9.312v9.312H143.854z"/>
	<path fill="#FFFFFF" d="M155.308,107.5V95.281h-2.5V93.5h7v1.781h-2.5V107.5H155.308z"/>
	<path fill="#FFFFFF" d="M165.095,107.5l3-14h2l3,14h-2l-0.75-3.5h-2.5l-0.75,3.5H165.095z M168.095,102.5h2l-1-6L168.095,102.5z"/>
	<path fill="#FFFFFF" d="M175.179,107.5v-14h1.5l3.5,8.656V93.5h2v14h-1.422l-3.578-9.312v9.312H175.179z"/>
	<path fill="#FFFFFF" d="M184.265,107.5l3-14h2l3,14h-2l-0.75-3.5h-2.5l-0.75,3.5H184.265z M187.265,102.5h2l-1-6L187.265,102.5z"/>
	<path fill="#FFFFFF" d="M194.349,107.5v-14h2V106h3.5v1.5H194.349z"/>
	<path fill="#FFFFFF" d="M203.216,107.5V103l-3-9.5h2l2,7l2-7h2l-3,9.5v4.5H203.216z"/>
	<path fill="#FFFFFF" d="M213.801,107.641c-1.261,0-2.223-0.37-2.887-1.109s-1.035-1.75-1.113-3.031l2-0.5c0.099,2,0.766,3,2,3
		c1,0,1.5-0.5,1.5-1.5c0-0.297-0.04-0.571-0.121-0.824s-0.204-0.484-0.371-0.695s-0.317-0.38-0.453-0.508s-0.32-0.285-0.555-0.473
		l-2.5-2c-0.458-0.359-0.824-0.816-1.098-1.371s-0.41-1.187-0.41-1.895c0-1.031,0.32-1.852,0.961-2.461s1.489-0.914,2.547-0.914
		c1.136,0,2.038,0.277,2.707,0.832s1.082,1.34,1.238,2.355c0.016,0.109,0.034,0.261,0.055,0.453l-2,0.5
		c-0.005-0.089-0.019-0.222-0.039-0.398c-0.089-0.636-0.288-1.145-0.598-1.527S213.899,95,213.301,95
		c-0.479,0-0.849,0.134-1.109,0.402s-0.391,0.642-0.391,1.121c0,0.786,0.333,1.445,1,1.977l2.5,2c1.333,1.078,2,2.367,2,3.867
		c0,1.026-0.316,1.828-0.949,2.406S214.868,107.641,213.801,107.641z"/>
	<path fill="#FFFFFF" d="M219.815,107.5v-14h2v14H219.815z"/>
	<path fill="#FFFFFF" d="M228.564,107.641c-1.261,0-2.223-0.37-2.887-1.109s-1.035-1.75-1.113-3.031l2-0.5c0.099,2,0.766,3,2,3
		c1,0,1.5-0.5,1.5-1.5c0-0.297-0.04-0.571-0.121-0.824s-0.204-0.484-0.371-0.695s-0.317-0.38-0.453-0.508s-0.32-0.285-0.555-0.473
		l-2.5-2c-0.458-0.359-0.824-0.816-1.098-1.371s-0.41-1.187-0.41-1.895c0-1.031,0.32-1.852,0.961-2.461s1.489-0.914,2.547-0.914
		c1.136,0,2.038,0.277,2.707,0.832s1.082,1.34,1.238,2.355c0.016,0.109,0.034,0.261,0.055,0.453l-2,0.5
		c-0.005-0.089-0.019-0.222-0.039-0.398c-0.089-0.636-0.288-1.145-0.598-1.527S228.663,95,228.064,95
		c-0.479,0-0.849,0.134-1.109,0.402s-0.391,0.642-0.391,1.121c0,0.786,0.333,1.445,1,1.977l2.5,2c1.333,1.078,2,2.367,2,3.867
		c0,1.026-0.316,1.828-0.949,2.406S229.632,107.641,228.564,107.641z"/>
	<path fill="#FFFFFF" d="M243.727,106.712c-0.464,0.619-1.231,0.929-2.305,0.929s-1.841-0.31-2.305-0.929s-0.695-1.513-0.695-2.679
		v-2.973c0-1.166,0.231-2.059,0.695-2.678s1.231-0.93,2.305-0.93s1.841,0.311,2.305,0.93s0.695,1.512,0.695,2.678v2.973
		C244.422,105.199,244.19,106.093,243.727,106.712z M241.051,105.953c0.106,0.042,0.23,0.062,0.371,0.062s0.265-0.02,0.371-0.062
		s0.195-0.092,0.266-0.151c0.07-0.059,0.129-0.146,0.176-0.263s0.083-0.218,0.109-0.306s0.044-0.214,0.055-0.38
		c0.011-0.165,0.017-0.295,0.02-0.391s0.004-0.239,0.004-0.43v-2.973c0-0.19-0.001-0.334-0.004-0.43s-0.009-0.225-0.02-0.391
		c-0.011-0.165-0.028-0.291-0.055-0.379s-0.062-0.19-0.109-0.306c-0.047-0.116-0.105-0.204-0.176-0.264
		c-0.07-0.059-0.159-0.109-0.266-0.151c-0.106-0.041-0.23-0.062-0.371-0.062s-0.265,0.021-0.371,0.062
		c-0.106,0.042-0.195,0.093-0.266,0.151c-0.07,0.06-0.129,0.147-0.176,0.264c-0.047,0.115-0.083,0.218-0.109,0.306
		s-0.044,0.214-0.055,0.379c-0.011,0.166-0.017,0.295-0.02,0.391s-0.004,0.239-0.004,0.43v2.973c0,0.19,0.001,0.334,0.004,0.43
		s0.009,0.226,0.02,0.391c0.011,0.166,0.028,0.292,0.055,0.38s0.062,0.189,0.109,0.306s0.105,0.204,0.176,0.263
		C240.855,105.861,240.944,105.911,241.051,105.953z"/>
	<path fill="#FFFFFF" d="M247.546,107.501v-8.422h-1v-1.486h1v-0.379c0-0.418,0.016-0.773,0.047-1.064s0.095-0.573,0.191-0.844
		c0.096-0.271,0.227-0.488,0.391-0.65s0.383-0.291,0.656-0.387s0.6-0.144,0.98-0.144c0.322,0,0.734,0.031,1.234,0.093v1.471
		c-0.053-0.005-0.159-0.02-0.32-0.042c-0.162-0.023-0.279-0.035-0.352-0.035c-0.334,0-0.555,0.104-0.664,0.313
		s-0.164,0.518-0.164,0.925v0.743h1.5v1.486h-1.5v8.422H247.546z"/>
	<path fill="#FFFFFF" d="M258.724,107.5V95.281h-2.5V93.5h7v1.781h-2.5V107.5H258.724z"/>
	<path fill="#FFFFFF" d="M266.762,107.5l-2.5-14h2l1,6.5l0.508,4l0.492-4l1-6.5h2l1,6.5l0.492,4l0.508-4l1-6.5h2l-2.5,14h-2l-1-6.5
		l-0.5-4l-0.5,4l-1,6.5H266.762z"/>
	<path fill="#FFFFFF" d="M278.308,107.5v-14h5.5V95h-3.5v4.5h2.5v1.5h-2.5v5h3.5v1.5H278.308z"/>
	<path fill="#FFFFFF" d="M285.994,107.5v-14h5.5V95h-3.5v4.5h2.5v1.5h-2.5v5h3.5v1.5H285.994z"/>
	<path fill="#FFFFFF" d="M295.173,107.5V95.281h-2.5V93.5h7v1.781h-2.5V107.5H295.173z"/>
	<path fill="#FFFFFF" d="M305.274,107.641c-1.262,0-2.223-0.37-2.887-1.109s-1.035-1.75-1.113-3.031l2-0.5c0.098,2,0.766,3,2,3
		c1,0,1.5-0.5,1.5-1.5c0-0.297-0.041-0.571-0.121-0.824c-0.082-0.253-0.205-0.484-0.371-0.695c-0.168-0.211-0.318-0.38-0.453-0.508
		c-0.137-0.128-0.32-0.285-0.555-0.473l-2.5-2c-0.459-0.359-0.824-0.816-1.098-1.371s-0.41-1.187-0.41-1.895
		c0-1.031,0.32-1.852,0.961-2.461s1.488-0.914,2.547-0.914c1.135,0,2.037,0.277,2.707,0.832c0.668,0.555,1.082,1.34,1.238,2.355
		c0.016,0.109,0.033,0.261,0.055,0.453l-2,0.5c-0.006-0.089-0.02-0.222-0.039-0.398c-0.09-0.636-0.289-1.145-0.598-1.527
		c-0.311-0.383-0.766-0.574-1.363-0.574c-0.48,0-0.85,0.134-1.109,0.402c-0.262,0.269-0.391,0.642-0.391,1.121
		c0,0.786,0.332,1.445,1,1.977l2.5,2c1.332,1.078,2,2.367,2,3.867c0,1.026-0.316,1.828-0.949,2.406S306.341,107.641,305.274,107.641
		z"/>
	<path fill="#FFFFFF" d="M314.53,107.5l3-14h2l3,14h-2l-0.75-3.5h-2.5l-0.75,3.5H314.53z M317.53,102.5h2l-1-6L317.53,102.5z"/>
	<path fill="#FFFFFF" d="M324.614,107.5v-14h3c0.646,0,1.225,0.067,1.734,0.203c0.511,0.136,0.957,0.341,1.34,0.617
		s0.678,0.641,0.883,1.094c0.206,0.453,0.309,0.981,0.309,1.586c0,0.875-0.185,1.54-0.555,1.996
		c-0.369,0.456-0.939,0.79-1.711,1.004c0.834,0.276,1.459,0.681,1.875,1.215c0.417,0.534,0.625,1.296,0.625,2.285
		c0,1.234-0.357,2.21-1.074,2.926c-0.716,0.716-1.691,1.074-2.926,1.074H324.614z M326.614,99.5h1c1.667,0,2.5-0.833,2.5-2.5
		c0-0.276-0.033-0.52-0.102-0.73c-0.067-0.211-0.148-0.387-0.242-0.527s-0.235-0.259-0.426-0.355
		c-0.189-0.097-0.363-0.171-0.52-0.223s-0.379-0.09-0.668-0.113s-0.529-0.038-0.723-0.043c-0.192-0.005-0.466-0.008-0.82-0.008V99.5
		z M326.614,106h1c0.865,0,1.498-0.199,1.898-0.598c0.401-0.398,0.602-1.032,0.602-1.902s-0.2-1.504-0.602-1.902
		c-0.4-0.398-1.033-0.598-1.898-0.598h-1V106z"/>
	<path fill="#FFFFFF" d="M338.138,107.641c-0.703,0-1.307-0.106-1.809-0.32c-0.504-0.214-0.902-0.526-1.199-0.938
		s-0.514-0.895-0.648-1.449c-0.137-0.555-0.203-1.199-0.203-1.934v-5.078c0-0.734,0.066-1.375,0.203-1.922
		c0.135-0.547,0.352-1.022,0.648-1.426s0.695-0.707,1.199-0.91c0.502-0.203,1.105-0.305,1.809-0.305
		c1.363,0,2.348,0.391,2.953,1.172c0.604,0.781,0.906,1.911,0.906,3.391V103c0,0.724-0.07,1.363-0.207,1.918
		c-0.139,0.555-0.355,1.039-0.652,1.453s-0.697,0.729-1.199,0.945C339.435,107.532,338.835,107.641,338.138,107.641z
		 M336.681,105.367c0.268,0.422,0.754,0.633,1.457,0.633s1.188-0.211,1.457-0.633c0.268-0.422,0.402-1.044,0.402-1.867v-6.078
		c0-0.812-0.133-1.419-0.398-1.82S338.845,95,338.138,95c-0.709,0-1.195,0.2-1.461,0.602s-0.398,1.008-0.398,1.82v6.078
		C336.278,104.323,336.411,104.945,336.681,105.367z"/>
	<path fill="#FFFFFF" d="M350.206,107.406c-0.463,0.161-1,0.242-1.609,0.242s-1.146-0.081-1.609-0.242
		c-0.463-0.161-0.845-0.387-1.145-0.676c-0.299-0.289-0.543-0.652-0.73-1.09s-0.32-0.91-0.398-1.418s-0.117-1.082-0.117-1.723v-9h2
		v9c0,0.433,0.01,0.794,0.027,1.086c0.019,0.292,0.066,0.603,0.145,0.934s0.187,0.595,0.324,0.793
		c0.139,0.198,0.334,0.362,0.586,0.492c0.253,0.13,0.559,0.195,0.918,0.195s0.666-0.065,0.918-0.195
		c0.253-0.13,0.448-0.294,0.586-0.492c0.139-0.198,0.246-0.462,0.324-0.793s0.127-0.642,0.145-0.934
		c0.019-0.292,0.027-0.653,0.027-1.086v-9h2v9c0,0.641-0.039,1.215-0.117,1.723s-0.211,0.98-0.398,1.418s-0.431,0.801-0.73,1.09
		C351.052,107.02,350.67,107.245,350.206,107.406z"/>
	<path fill="#FFFFFF" d="M356.94,107.5V95.281h-2.5V93.5h7v1.781h-2.5V107.5H356.94z"/>
	<path fill="#FFFFFF" d="M371.196,107.641c-0.59,0-1.107-0.083-1.555-0.25c-0.449-0.167-0.816-0.397-1.102-0.691
		c-0.287-0.294-0.52-0.661-0.699-1.102s-0.307-0.91-0.379-1.41c-0.074-0.5-0.109-1.065-0.109-1.695V98.5
		c0-0.63,0.035-1.195,0.109-1.695c0.072-0.5,0.199-0.97,0.379-1.41s0.412-0.806,0.699-1.098c0.285-0.292,0.652-0.521,1.102-0.688
		c0.447-0.167,0.965-0.25,1.555-0.25c0.65,0,1.213,0.097,1.688,0.289c0.473,0.192,0.852,0.477,1.137,0.852
		c0.283,0.375,0.496,0.81,0.641,1.305c0.143,0.495,0.227,1.073,0.254,1.734c0.004,0.099,0.008,0.253,0.008,0.461h-2v-0.445
		c-0.006-0.276-0.016-0.512-0.031-0.707s-0.045-0.397-0.086-0.605c-0.043-0.208-0.104-0.382-0.184-0.52
		c-0.082-0.138-0.184-0.266-0.305-0.383c-0.123-0.117-0.277-0.203-0.465-0.258S371.446,95,371.196,95
		c-0.324,0-0.602,0.052-0.832,0.156c-0.232,0.104-0.414,0.238-0.543,0.402c-0.131,0.164-0.23,0.384-0.301,0.66
		s-0.117,0.546-0.137,0.809c-0.021,0.263-0.031,0.587-0.031,0.973v5c0,0.333,0.014,0.636,0.043,0.906
		c0.027,0.271,0.084,0.54,0.168,0.809c0.082,0.269,0.191,0.493,0.324,0.676s0.309,0.329,0.531,0.441
		c0.221,0.112,0.48,0.168,0.777,0.168s0.551-0.058,0.766-0.172c0.213-0.114,0.381-0.261,0.504-0.438
		c0.121-0.177,0.219-0.403,0.289-0.68s0.115-0.544,0.137-0.805c0.02-0.261,0.031-0.562,0.031-0.906v-0.5h2v0.5
		c0,0.724-0.064,1.359-0.191,1.906c-0.129,0.547-0.334,1.03-0.617,1.449c-0.285,0.419-0.67,0.738-1.156,0.957
		C372.47,107.531,371.884,107.641,371.196,107.641z"/>
	<path fill="#FFFFFF" d="M377.21,107.5v-14h2v6h3.5v-6h2v14h-2V101h-3.5v6.5H377.21z"/>
	<path fill="#FFFFFF" d="M387.671,107.5v-14h2.5c1.488,0,2.611,0.289,3.367,0.867c0.754,0.578,1.133,1.539,1.133,2.883
		c0,0.833-0.148,1.531-0.445,2.094s-0.732,0.948-1.305,1.156l2.25,7h-1.984l-2.016-6.5h-1.5v6.5H387.671z M389.671,99.5h0.5
		c0.832,0,1.457-0.176,1.875-0.527c0.416-0.352,0.625-0.926,0.625-1.723s-0.209-1.371-0.625-1.723
		c-0.418-0.352-1.043-0.527-1.875-0.527h-0.5V99.5z"/>
	<path fill="#FFFFFF" d="M397.38,107.5v-14h2v14H397.38z"/>
	<path fill="#FFFFFF" d="M406.13,107.641c-1.261,0-2.223-0.37-2.887-1.109s-1.035-1.75-1.113-3.031l2-0.5c0.099,2,0.766,3,2,3
		c1,0,1.5-0.5,1.5-1.5c0-0.297-0.041-0.571-0.121-0.824c-0.081-0.253-0.205-0.484-0.371-0.695c-0.167-0.211-0.318-0.38-0.453-0.508
		c-0.136-0.128-0.32-0.285-0.555-0.473l-2.5-2c-0.459-0.359-0.824-0.816-1.098-1.371s-0.41-1.187-0.41-1.895
		c0-1.031,0.32-1.852,0.961-2.461s1.489-0.914,2.547-0.914c1.135,0,2.037,0.277,2.707,0.832c0.669,0.555,1.082,1.34,1.238,2.355
		c0.016,0.109,0.033,0.261,0.055,0.453l-2,0.5c-0.006-0.089-0.019-0.222-0.039-0.398c-0.089-0.636-0.288-1.145-0.598-1.527
		C406.683,95.191,406.229,95,405.63,95c-0.479,0-0.85,0.134-1.109,0.402c-0.261,0.269-0.391,0.642-0.391,1.121
		c0,0.786,0.333,1.445,1,1.977l2.5,2c1.333,1.078,2,2.367,2,3.867c0,1.026-0.316,1.828-0.949,2.406S407.197,107.641,406.13,107.641z
		"/>
	<path fill="#FFFFFF" d="M413.543,107.5V95.281h-2.5V93.5h7v1.781h-2.5V107.5H413.543z"/>
	<path fill="#FFFFFF" d="M419.995,107.5v-14h2.766l1.984,10.719l1.984-10.719h2.766v14h-2V96.453l-2,11.047h-1.5l-2-11.047V107.5
		H419.995z"/>
	<path fill="#FFFFFF" d="M431.58,107.5l3-14h2l3,14h-2l-0.75-3.5h-2.5l-0.75,3.5H431.58z M434.58,102.5h2l-1-6L434.58,102.5z"/>
	<path fill="#FFFFFF" d="M445.313,107.641c-1.261,0-2.223-0.37-2.887-1.109s-1.035-1.75-1.113-3.031l2-0.5c0.099,2,0.766,3,2,3
		c1,0,1.5-0.5,1.5-1.5c0-0.297-0.041-0.571-0.121-0.824c-0.081-0.253-0.205-0.484-0.371-0.695c-0.167-0.211-0.318-0.38-0.453-0.508
		c-0.136-0.128-0.32-0.285-0.555-0.473l-2.5-2c-0.459-0.359-0.824-0.816-1.098-1.371s-0.41-1.187-0.41-1.895
		c0-1.031,0.32-1.852,0.961-2.461s1.489-0.914,2.547-0.914c1.135,0,2.037,0.277,2.707,0.832c0.669,0.555,1.082,1.34,1.238,2.355
		c0.016,0.109,0.033,0.261,0.055,0.453l-2,0.5c-0.006-0.089-0.019-0.222-0.039-0.398c-0.089-0.636-0.288-1.145-0.598-1.527
		c-0.311-0.383-0.765-0.574-1.363-0.574c-0.479,0-0.85,0.134-1.109,0.402c-0.261,0.269-0.391,0.642-0.391,1.121
		c0,0.786,0.333,1.445,1,1.977l2.5,2c1.333,1.078,2,2.367,2,3.867c0,1.026-0.316,1.828-0.949,2.406S446.381,107.641,445.313,107.641
		z"/>
</g>
<path opacity="0.15" fill-rule="evenodd" clip-rule="evenodd" fill="#2F747D" d="M261.339,14.667l2.802,5.028l5.697,1.082
	l-3.967,4.191l0.721,5.697l-5.253-2.438l-5.253,2.438l0.72-5.697l-3.966-4.191l5.697-1.082L261.339,14.667"/>
<path fill-rule="evenodd" clip-rule="evenodd" fill="#FFFFFF" d="M258.333,11.667l2.802,5.028l5.697,1.083l-3.967,4.191l0.721,5.697
	l-5.253-2.438l-5.253,2.438l0.72-5.697l-3.966-4.191l5.697-1.083L258.333,11.667"/>
</svg>
