<?xml version="1.0" encoding="utf-8"?>
<!-- Generator: Adobe Illustrator 16.0.0, SVG Export Plug-In . SVG Version: 6.00 Build 0)  -->
<!DOCTYPE svg PUBLIC "-//W3C//DTD SVG 1.1//EN" "http://www.w3.org/Graphics/SVG/1.1/DTD/svg11.dtd">
<svg version="1.1" id="Layer_1" xmlns="http://www.w3.org/2000/svg" xmlns:xlink="http://www.w3.org/1999/xlink" x="0px" y="0px"
	 width="110px" height="120.98px" viewBox="0 0 110 120.98" enable-background="new 0 0 110 120.98" xml:space="preserve">
<path fill="#94CAD3" d="M67.018,9.216c6.33,1.913,4.824,22.678-0.93,39.853c5.761,4.169,19.281,9.659,34.665,7.738
	c-0.352,5.19-0.594,7.678-4.444,8.771l-5.748,1.527c-3.982,1.205-2.189,7.258,1.828,6.041l5.946-1.754
	c-1.009,6.628-1.095,7.774-5.575,9.133l-4.562,1.402c-4.025,1.218-2.146,7.248,1.829,6.041l5.604-1.836
	c-0.795,5.983-0.968,7.707-5.304,9.02l-4.47,1.523c-3.981,1.204-2.188,7.26,1.827,6.039l4.726-1.585
	c-1.465,10.299-12.479,11.674-22.788,10.474C57.923,110.24,42.451,98.143,9.04,97.768c0-12.252,0-22.121,0-36.429
	c31.747-2.251,45.365-23.769,50.446-39.584C61.387,15.835,61.954,7.686,67.018,9.216z M65.822,0
	c-9.381,0-11.769,8.429-14.273,16.779C41.472,50.376,15.346,52.04,0,53.231c0,15.563,0,28.288,0,53.052
	c45.484,0,50.931,12.301,68.61,14.291c16.424,1.851,27.79-2.348,31.993-18.172c2.928-11.023,7.24-35.199,9.396-55.513
	c-8.424,2.107-22.389,2.057-33.109-2.459C80.969,27.881,83.201,0,65.822,0z"/>
</svg>
